<?xml version="1.0" encoding="UTF-8"?>
<!DOCTYPE svg PUBLIC "-//W3C//DTD SVG 1.1//EN" "http://www.w3.org/Graphics/SVG/1.1/DTD/svg11.dtd">
<!-- Creator: CorelDRAW X7 -->
<svg xmlns="http://www.w3.org/2000/svg" xml:space="preserve" width="2.85728in" height="4.04638in" version="1.1" style="shape-rendering:geometricPrecision; text-rendering:geometricPrecision; image-rendering:optimizeQuality; fill-rule:evenodd; clip-rule:evenodd"
viewBox="0 0 2857 4046"
 xmlns:xlink="http://www.w3.org/1999/xlink">
 <defs>
  <style type="text/css">
   <![CDATA[
    .fil0 {fill:#781D6F}
   ]]>
  </style>
 </defs>
 <g id="Layer_x0020_1">
  <metadata id="CorelCorpID_0Corel-Layer"/>
  <path class="fil0" d="M2630 1546c190,-181 245,-443 133,-715 131,-479 -146,-777 -602,-680 -258,-211 -652,-195 -879,10 -453,-72 -710,250 -572,708 -99,238 -55,488 172,677 -74,0 -147,0 -220,0l0 320c0,91 39,174 101,232 -56,53 -93,126 -100,207l-663 0 0 1412 661 0c-6,180 139,329 319,329 463,0 926,0 1389,0 176,0 319,-143 319,-319 0,-60 -16,-116 -45,-164 125,-44 214,-162 214,-302 0,-91 -38,-174 -100,-232 62,-59 100,-141 100,-233 0,-91 -39,-174 -101,-232 62,-59 101,-142 101,-233 0,-102 -47,-192 -121,-251 51,-57 83,-132 83,-214l0 -320 -174 0 -15 0zm-597 -1108c213,-7 442,54 626,241 87,-405 -444,-553 -626,-241zm-370 1173c48,-22 101,-49 159,-80l0 480c-17,0 -35,0 -52,0 -55,0 -107,-40 -107,-103l0 -297zm399 -78c-24,-5 -48,-9 -72,-14 -1,-32 -1,-63 -2,-95 284,-107 417,-463 255,-774 406,80 520,573 247,801 -92,76 -233,115 -428,82zm80 187l503 0 0 146c0,80 -66,145 -146,145l-503 0 0 -145c0,-80 66,-146 146,-146zm-654 291l-506 0c-80,0 -146,-65 -146,-145l0 -146 507 0c80,0 145,66 145,146l0 145zm-506 174c287,0 574,0 861,0 80,0 146,66 146,146 0,204 0,407 0,611l-178 0c-81,0 -146,-66 -146,-146l0 -315 -174 -2 0 317c0,79 -65,146 -146,146l-363 0c-88,0 -139,-64 -146,-146 0,-155 0,-310 0,-465 0,-80 66,-146 146,-146zm-320 611c0,176 144,320 320,320l363 0c83,0 159,-32 216,-84 -60,58 -98,139 -98,229 0,92 39,175 101,233 -62,58 -101,141 -101,233 0,52 13,102 36,145l-519 0c-92,0 -142,-70 -145,-155l0 -175 -661 0 0 -1063 488 0 0 317zm1466 -611l410 0c80,0 145,66 145,146 0,80 -65,145 -145,145l-375 0 0 -144c0,-52 -12,-101 -35,-147zm35 466l375 0c80,0 145,65 145,145 0,80 -65,146 -145,146l-375 0 0 -291zm-380 756c-80,0 -146,-65 -146,-146 0,-80 66,-145 146,-145l755 0c80,0 145,65 145,145 0,80 -65,146 -145,146l-755 0zm0 465l586 0c80,0 145,-65 145,-145 0,-80 -65,-146 -145,-146l-586 0c-80,0 -146,66 -146,146 0,80 66,145 146,145zm97 -3482c26,-54 64,-110 119,-153 -296,-225 -738,-19 -755,369 169,-198 404,-264 636,-216zm-721 -74c-115,205 -101,409 -10,614 -458,-19 -398,-646 10,-614zm579 226c45,0 82,37 82,82 0,46 -37,83 -82,83 -46,0 -83,-37 -83,-83 0,-45 37,-82 83,-82zm378 534c64,-209 12,-347 -128,-430 -25,142 -107,216 -242,231 84,118 196,200 370,199zm-641 -438c-186,147 -171,382 -79,516 112,163 390,254 576,71 -296,-42 -454,-247 -497,-587zm94 816c-356,248 -832,-36 -745,-478 98,84 220,118 347,107 68,219 211,327 398,371z"/>
 </g>
</svg>
